:SAMPLES-PER-SECOND 30
:FULLY-SPECIFIED
:DEGREES
359
root  35.4279 34.3109 32.5578 7.77122 29.3802 4.1452
LeftUpLeg  -16.2654 17.6056 -7.04414
LeftLeg  11.6121 8.87051 1.22922
LeftFoot  2.69648 -0.0173802 0.472093
LeftToes  -12.5413 1.61378e-006 8.80029e-008
Spine  2.03386 2.26337 -4.46379
Spine1  3.84785 4.72085 -8.51669
RightShoulder  -0.00442429 5.46611 5.12026
RightArm  -18.9934 1.10784 60.1924
RightForeArm  11.8573 37.3135 7.72207
RightHand  0.258336 -9.30557 -2.80146
LeftShoulder1  0.0511094 -0.625246 -8.45345
LeftArm  -23.411 15.4181 -63.8824
LeftForeArm  30.2412 -15.7422 -2.8422
LeftHand  0.0910601 2.5217 3.75523
HEad  -8.02455 -10.054 -4.06198
RightUpLeg  -7.38937 -4.89262 -8.0314
RightLeg  40.2137 6.96774 5.11409
RightFoot  -4.80371 -0.0434446 -0.658275
RightToes  -50.908 -0.310943 -0.3681
360
root  35.8699 34.3317 32.732 7.4566 27.2356 4.44127
LeftUpLeg  -14.8216 18.3033 -7.48151
LeftLeg  11.0135 10.2893 1.31529
LeftFoot  2.01354 -0.0139813 0.407304
LeftToes  -11.7284 1.61378e-006 8.80029e-008
Spine  1.95041 1.95829 -4.82244
Spine1  3.74615 4.08152 -9.27208
RightShoulder  -0.00873859 4.0404 2.33227
RightArm  -19.7468 11.5035 54.3631
RightForeArm  7.29046 44.47 9.97069
RightHand  0.421268 -9.86225 -4.5068
LeftShoulder1  0.0483276 -1.72911 -6.93564
LeftArm  -23.0866 17.8066 -63.4608
LeftForeArm  29.4538 -16.8454 -3.0535
LeftHand  0.0872866 2.38317 3.81352
HEad  -8.35372 -7.86661 -3.6157
RightUpLeg  -9.67768 -4.1224 -9.48949
RightLeg  45.3516 7.70628 6.77521
RightFoot  -3.01708 -0.022879 -0.491317
RightToes  -48.0377 -0.285661 -0.355881
361
root  36.2683 34.3813 32.8989 7.24602 26.3991 4.2164
LeftUpLeg  -13.8386 19.3979 -7.65155
LeftLeg  10.273 10.0276 1.15146
LeftFoot  1.72213 -0.0103688 0.335027
LeftToes  -9.60441 1.61378e-006 8.80029e-008
Spine  2.10951 1.42816 -4.96071
Spine1  4.10384 3.03298 -9.6458
RightShoulder  -0.0103845 3.01778 -0.587615
RightArm  -28.1881 18.8419 45.004
RightForeArm  5.97355 55.7388 15.0302
RightHand  0.698113 -10.0631 -7.54182
LeftShoulder1  0.0377812 -2.42965 -5.08531
LeftArm  -23.5119 19.2997 -63.6019
LeftForeArm  29.5634 -17.3445 -3.14968
LeftHand  0.0768715 1.82072 4.44793
HEad  -8.98085 -6.00322 -3.10704
RightUpLeg  -11.8426 -4.36699 -9.81429
RightLeg  46.9822 3.8421 3.57598
RightFoot  -2.94581 -0.0155801 -0.228431
RightToes  -40.3363 -0.221175 -0.317014
362
root  36.601 34.5068 33.0925 7.35138 27.8316 2.8589
LeftUpLeg  -13.7464 19.0131 -6.91287
LeftLeg  9.57904 9.0283 0.927518
LeftFoot  1.83075 -0.00996396 0.310735
LeftToes  -6.76147 1.61378e-006 8.80029e-008
Spine  2.36189 0.842405 -4.74425
Spine1  4.61655 1.89212 -9.33549
RightShoulder  -0.0117285 2.82295 -1.87113
RightArm  -47.0147 19.0607 31.4927
RightForeArm  15.8943 69.6441 28.5278
RightHand  0.959993 -9.08029 -11.667
LeftShoulder1  0.0286787 -3.03897 -3.87811
LeftArm  -24.4273 19.3829 -63.4739
LeftForeArm  30.4687 -17.3271 -3.14579
LeftHand  0.0751512 1.45696 5.50895
HEad  -10.2727 -5.78833 -2.154
RightUpLeg  -13.7557 -6.97501 -8.50042
RightLeg  44.6877 -2.89929 -2.54945
RightFoot  -5.26247 0.000965984 0.398622
RightToes  -30.1826 -0.14518 -0.253233
363
root  36.8945 34.6513 33.2984 7.6888 31.0223 1.51572
LeftUpLeg  -13.839 16.627 -6.0538
LeftLeg  8.70729 8.34862 0.730526
LeftFoot  2.41284 -0.0147297 0.367239
LeftToes  -5.01442 1.61378e-006 8.80029e-008
Spine  2.59817 0.320146 -4.22938
Spine1  5.09523 0.860001 -8.39213
RightShoulder  -0.0127452 2.96915 -3.39524
RightArm  -69.4311 12.82 16.9104
RightForeArm  39.3795 77.9285 56.1592
RightHand  1.60532 -9.21698 -19.3362
LeftShoulder1  0.0278626 -3.6415 -3.80396
LeftArm  -26.0238 18.7122 -63.102
LeftForeArm  31.5826 -17.3715 -3.15368
LeftHand  0.0837007 1.54289 5.81392
HEad  -11.2842 -7.41593 -2.02704
RightUpLeg  -15.0201 -9.91899 -7.09244
RightLeg  39.8152 -6.51517 -4.75531
RightFoot  -7.31219 0.0449011 1.08035
RightToes  -23.4154 -0.101305 -0.2037
364
root  37.1714 34.7719 33.5634 8.1255 34.4277 0.445663
LeftUpLeg  -14.0326 15.2406 -5.38779
LeftLeg  8.05784 6.36944 0.485486
LeftFoot  2.83517 -0.0131006 0.327104
LeftToes  -3.8562 1.61378e-006 8.80029e-008
Spine  2.71023 -0.146354 -3.66514
Spine1  5.39978 -0.130499 -7.24489
RightShoulder  -0.0127802 2.17335 -6.10019
RightArm  -88.8368 3.5576 6.5374
RightForeArm  59.2685 79.6717 77.3776
RightHand  2.21188 -8.64275 -28.2711
LeftShoulder1  0.0230894 -4.12978 -4.2669
LeftArm  -27.5016 18.5677 -62.5239
LeftForeArm  31.2164 -18.6348 -3.4001
LeftHand  0.11307 2.01931 6.0185
HEad  -11.4408 -9.63856 -2.24561
RightUpLeg  -16.2081 -11.7978 -5.97394
RightLeg  33.6887 -6.90227 -3.98085
RightFoot  -6.52643 0.0325021 0.947704
RightToes  -24.1516 -0.105791 -0.209336
365
root  37.4369 34.8627 33.8922 8.43199 36.9637 -0.252609
LeftUpLeg  -14.2605 15.4806 -4.93623
LeftLeg  8.26107 3.49797 0.27904
LeftFoot  2.76794 -0.00440026 0.182125
LeftToes  -3.44889 1.61378e-006 8.80029e-008
Spine  2.93379 -0.516896 -3.42365
Spine1  5.87465 -0.878331 -6.75881
RightShoulder  -0.0124235 0.257523 -8.19246
RightArm  -105.993 -3.1491 1.32039
RightForeArm  73.6181 79.8935 87.3597
RightHand  2.01974 -7.58892 -29.3739
LeftShoulder1  0.0183 -3.89483 -4.32121
LeftArm  -28.6876 18.5168 -62.0698
LeftForeArm  30.0577 -20.808 -3.83349
LeftHand  0.145072 2.3442 6.69178
HEad  -11.4094 -11.1827 -1.77757
RightUpLeg  -17.5995 -12.6528 -5.23201
RightLeg  27.7956 -5.4694 -2.44837
RightFoot  -3.89395 0.00199331 0.436265
RightToes  -28.5129 -0.133816 -0.241498
366
root  37.6768 34.9234 34.2571 8.46469 38.1488 -0.697922
LeftUpLeg  -14.2473 15.5514 -4.4369
LeftLeg  9.03758 2.23257 0.208206
LeftFoot  2.23894 0.000825903 0.101903
LeftToes  -3.19028 1.61378e-006 8.80029e-008
Spine  3.06235 -0.87398 -3.29315
Spine1  6.13006 -1.58234 -6.52822
RightShoulder  -0.0125903 -2.71824 -9.26761
RightArm  -115.959 -4.35186 -0.170405
RightForeArm  93.6911 79.4268 107.241
RightHand  2.13595 -7.20609 -32.585
LeftShoulder1  0.0161827 -3.33336 -4.53587
LeftArm  -29.5664 19.0841 -61.4539
LeftForeArm  29.0705 -22.1734 -4.1125
LeftHand  0.147534 2.22531 7.19278
HEad  -10.6123 -11.3799 -1.96892
RightUpLeg  -19.0118 -12.9965 -4.80713
RightLeg  22.3754 -1.84117 -0.625279
RightFoot  -2.03623 -0.00503833 0.0940737
RightToes  -33.3374 -0.167565 -0.274479
367
root  37.9096 34.956 34.6329 8.20026 38.162 -1.00473
LeftUpLeg  -13.4842 14.6135 -3.81655
LeftLeg  9.31037 3.28765 0.322759
LeftFoot  1.66948 0.000632987 0.109117
LeftToes  -3.34139 1.61378e-006 8.80029e-008
Spine  2.94669 -1.2895 -3.25479
Spine1  5.92283 -2.42224 -6.48135
RightShoulder  -0.0128941 -3.93881 -9.70999
RightArm  -115.564 -3.88338 1.21885
RightForeArm  113.662 76.9381 129.685
RightHand  2.22766 -6.43196 -37.7677
LeftShoulder1  0.0153655 -3.29751 -4.68433
LeftArm  -31.2094 20.8541 -60.9667
LeftForeArm  29.1998 -22.7188 -4.22524
LeftHand  0.149763 2.1474 7.58352
HEad  -8.89287 -10.863 -2.23027
RightUpLeg  -19.8823 -12.1846 -4.78255
RightLeg  16.7471 1.37233 0.31841
RightFoot  1.5131 0.00431008 0.0511285
RightToes  -38.7566 -0.208627 -0.307991
368
root  38.1381 34.9754 35.026 7.97298 37.3869 -1.12567
LeftUpLeg  -12.2325 13.4912 -3.30827
LeftLeg  8.88354 5.33358 0.483826
LeftFoot  1.28023 -0.0014712 0.131671
LeftToes  -3.67458 1.61378e-006 8.80029e-008
Spine  2.95482 -1.50271 -3.2229
Spine1  5.96172 -2.85926 -6.42328
RightShoulder  -0.0132506 -2.99907 -8.92301
RightArm  -109.383 -4.64397 2.23046
RightForeArm  127.401 73.6523 142.418
RightHand  2.16344 -6.33236 -37.2879
LeftShoulder1  0.0156558 -3.21728 -4.8464
LeftArm  -32.6357 21.4038 -60.934
LeftForeArm  30.2165 -21.4226 -3.95808
LeftHand  0.150222 2.0683 7.9109
HEad  -8.17195 -10.5842 -2.40781
RightUpLeg  -20.5991 -11.0466 -4.86857
RightLeg  11.6523 3.29791 0.462735
RightFoot  6.93487 -0.00154245 0.402964
RightToes  -39.2622 -0.212616 -0.310917
369
root  38.3374 34.9721 35.4118 7.62917 36.2693 -1.23628
LeftUpLeg  -11.327 13.0772 -2.87618
LeftLeg  9.37722 7.05911 0.701136
LeftFoot  0.456572 -0.000272177 0.0683025
LeftToes  -4.0435 1.61378e-006 8.80029e-008
Spine  3.00865 -1.3314 -3.12291
Spine1  6.06899 -2.53653 -6.19673
RightShoulder  -0.0134446 -1.33362 -7.87583
RightArm  -100.383 -6.03925 3.33991
RightForeArm  133.97 70.8536 148.933
RightHand  2.03093 -6.72883 -33.1568
LeftShoulder1  0.0180972 -3.04159 -5.02041
LeftArm  -32.9049 20.2894 -61.1738
LeftForeArm  31.583 -18.4334 -3.36036
LeftHand  0.151897 2.18185 7.56987
HEad  -7.90897 -10.5264 -2.87926
RightUpLeg  -21.5669 -11.6284 -4.33529
RightLeg  8.18989 5.82247 0.460025
RightFoot  12.6943 -0.100041 1.27683
RightToes  -39.1487 -0.214491 -0.312282
370
root  38.5138 34.9353 35.8155 7.32344 35.5303 -1.233
LeftUpLeg  -10.5669 13.0084 -2.52503
LeftLeg  10.2015 8.05181 0.915927
LeftFoot  -0.556413 -0.000321179 -0.0661539
LeftToes  -4.59266 1.61378e-006 8.80029e-008
Spine  2.9788 -0.977672 -3.11833
Spine1  5.98967 -1.85958 -6.1261
RightShoulder  -0.0135363 -0.266634 -6.7623
RightArm  -88.468 -6.80799 6.26996
RightForeArm  136.586 68.6058 152.756
RightHand  2.05009 -6.67409 -33.7169
LeftShoulder1  0.0267877 -2.81609 -4.97708
LeftArm  -32.36 18.7063 -61.4848
LeftForeArm  33.0428 -16.2828 -2.94335
LeftHand  0.154044 2.63585 6.30162
HEad  -7.75996 -10.6619 -3.19108
RightUpLeg  -22.7563 -14.1322 -3.19859
RightLeg  6.70748 9.70082 0.512972
RightFoot  16.8985 -0.36496 2.83395
RightToes  -39.68 -0.215534 -0.313029
371
root  38.6702 34.8764 36.2663 7.16576 35.6559 -0.875336
LeftUpLeg  -9.5965 12.7543 -2.34166
LeftLeg  10.6855 8.36942 1.0232
LeftFoot  -1.35006 -0.00216923 -0.184122
LeftToes  -5.54083 1.61378e-006 8.80029e-008
Spine  2.90541 -0.808532 -3.29271
Spine1  5.83932 -1.55578 -6.39732
RightShoulder  -0.0135131 0.642321 -5.26259
RightArm  -75.7625 -6.83922 10.7087
RightForeArm  137.676 67.6847 154.077
RightHand  1.94237 -5.91415 -35.9292
LeftShoulder1  0.0363363 -2.86384 -4.72616
LeftArm  -32.2106 17.7327 -61.748
LeftForeArm  33.9935 -15.7598 -2.84294
LeftHand  0.143637 2.94955 5.19255
HEad  -7.2594 -10.8609 -3.16965
RightUpLeg  -23.6182 -17.1824 -2.23865
RightLeg  6.7478 12.8492 0.686357
RightFoot  18.8731 -0.637763 4.21323
RightToes  -39.8266 -0.2171 -0.314141
